<svg width="32" height="32" viewBox="0 0 32 32" fill="none" xmlns="http://www.w3.org/2000/svg">
<path fill-rule="evenodd" clip-rule="evenodd" d="M4.8 8.00002C4.8 7.11637 5.51634 6.40002 6.4 6.40002H25.6C26.4837 6.40002 27.2 7.11637 27.2 8.00002C27.2 8.88368 26.4837 9.60002 25.6 9.60002H6.4C5.51634 9.60002 4.8 8.88368 4.8 8.00002Z" fill="#8D98AF"/>
<path fill-rule="evenodd" clip-rule="evenodd" d="M4.8 16C4.8 15.1164 5.51634 14.4 6.4 14.4H16C16.8837 14.4 17.6 15.1164 17.6 16C17.6 16.8837 16.8837 17.6 16 17.6H6.4C5.51634 17.6 4.8 16.8837 4.8 16Z" fill="#8D98AF"/>
<path fill-rule="evenodd" clip-rule="evenodd" d="M4.8 24C4.8 23.1164 5.51634 22.4 6.4 22.4H25.6C26.4837 22.4 27.2 23.1164 27.2 24C27.2 24.8837 26.4837 25.6 25.6 25.6H6.4C5.51634 25.6 4.8 24.8837 4.8 24Z" fill="#8D98AF"/>
</svg>
